<?xml version="1.0" encoding="utf-8"?>
<!-- Generator: Adobe Illustrator 23.0.6, SVG Export Plug-In . SVG Version: 6.00 Build 0)  -->
<svg version="1.1" id="レイヤー_1" xmlns="http://www.w3.org/2000/svg" xmlns:xlink="http://www.w3.org/1999/xlink" x="0px"
	 y="0px" viewBox="0 0 84 89" style="enable-background:new 0 0 84 89;" xml:space="preserve">
<style type="text/css">
	.st0{fill:#EA6055;}
</style>
<title>秒</title>
<desc>Created with Sketch.</desc>
<g id="cQZzRO.tif" transform="translate(381.938 -153.307)">
	<g id="グループ_11" transform="translate(-418 122)">
		<path id="パス_19" class="st0" d="M57.7,59.4h-11c1.6-8.2,8.1-2.6,12-5.5l1.2-9.7l-10.1,0.5c0.9-7.1,1.9-8.2,8.3-8.9
			c7.9-0.8,15.8-1.4,23.7-2.1c-0.7,7.2-1.6,8.1-7.7,9.1c-1.1,0.2-2,1.7-3,2.7c-0.2,0.2-0.1,0.6-0.1,0.8c-0.2,2.6-0.5,5.2-0.7,8.3
			h9.3c0.2,3.7-1.3,4.8-4.4,4.6c-1.9-0.1-3.8,0.5-5.8,0.7l0.2,1.7l6.6,0.6v22.9l0.9,0.1c1.3-6.4,2.6-12.8,3.9-19.3
			c1.1-5.7,2.6-11.3,3.2-17c0.5-4.1,2.3-5.1,5.9-4.6c1.3,0.2,2.5,0.1,4.1,0.2c-2.6,14.5-5.2,28.6-7.9,43.2H76.4v16h-7.3
			c0.6-12.6,1.3-25,1.9-37.5l-1.3-0.3c-0.3,1.3-0.9,2.6-1,4c-1.6,14.8-3.3,29.5-4.5,44.4c-0.4,4.3-1.4,6.4-6.1,5.7
			c-1.9-0.3-4,0-6.5,0c1.9-18.2,3.8-35.9,5.6-53.5l-1.4-0.3c-3.1,14.3-6.1,28.7-9.2,43.2H37c2.7-10.4,5.4-20.5,8.1-30.6
			c1.1-4,2.4-8,3.2-12.1c0.7-3.5,2.1-5.3,6-4.8c1.2,0.2,2.5-0.6,3.7-1L57.7,59.4z"/>
		<path id="パス_20" class="st0" d="M102.8,90.2c5.5-0.7,10.8-1.4,16.2-2.1l0.5,1c-0.6,0.8-1.2,1.6-1.9,2.4
			c-8.6,8.7-17.2,17.5-26,26c-1.5,1.4-3.9,2.3-5.9,2.5c-4.4,0.4-8.9,0.1-13.9-0.7c8.8-7.6,17.6-15.2,27.1-23.5H80.7l-1-4.5h11.2
			c2.2-20.1,4.4-39.8,6.7-59.7h11.4C106.8,51.6,104.7,71.5,102.8,90.2z"/>
		<path id="パス_21" class="st0" d="M119.3,85.9h-10.2V44.8h8.6C118.2,58.4,118.7,71.9,119.3,85.9z"/>
	</g>
</g>
</svg>
