<?xml version="1.0" encoding="utf-8"?>
<!-- Generator: Adobe Illustrator 23.0.6, SVG Export Plug-In . SVG Version: 6.00 Build 0)  -->
<svg version="1.1" id="レイヤー_1" xmlns="http://www.w3.org/2000/svg" xmlns:xlink="http://www.w3.org/1999/xlink" x="0px"
	 y="0px" viewBox="0 0 28 28" style="enable-background:new 0 0 28 28;" xml:space="preserve">
<style type="text/css">
	.st0{clip-path:url(#SVGID_2_);}
	.st1{fill:#333333;}
</style>
<g>
	<defs>
		<rect id="SVGID_1_" y="0" width="28" height="28"/>
	</defs>
	<clipPath id="SVGID_2_">
		<use xlink:href="#SVGID_1_"  style="overflow:visible;"/>
	</clipPath>
	<g id="sns_tw" class="st0">
		<g id="グループ化_2206" transform="translate(0.5 3)">
			<g id="グループ化_75" transform="translate(0)">
				<path id="パス_131" class="st1" d="M27.1,2.6c-1,0.4-2.1,0.7-3.2,0.9c1.2-0.7,2-1.8,2.4-3.1c-1.1,0.6-2.3,1.1-3.5,1.3
					c-2.1-2.2-5.6-2.4-7.9-0.3c-1.1,1.1-1.8,2.5-1.8,4.1c0,0.4,0,0.9,0.1,1.3C8.9,6.6,4.7,4.5,1.9,1C0.4,3.6,1.2,6.8,3.6,8.4
					c-0.9,0-1.7-0.3-2.5-0.7v0.1c0,2.6,1.9,4.9,4.5,5.4c-0.5,0.1-1,0.2-1.5,0.2c-0.4,0-0.7,0-1-0.1c0.7,2.3,2.8,3.8,5.2,3.9
					c-2,1.5-4.4,2.4-6.9,2.4c-0.4,0-0.9,0-1.3-0.1C2.5,21.1,5.5,22,8.5,22c8.7,0.1,15.7-6.9,15.8-15.6c0-0.1,0-0.1,0-0.2l0-0.7
					C25.4,4.7,26.3,3.7,27.1,2.6z"/>
			</g>
		</g>
	</g>
</g>
</svg>
